<svg xmlns="http://www.w3.org/2000/svg" xmlns:xlink="http://www.w3.org/1999/xlink" width="500" zoomAndPan="magnify" viewBox="0 0 375 374.999991" height="500" preserveAspectRatio="xMidYMid meet" version="1.0"><path fill="#000000" d="M 292.652344 223.890625 L 283.332031 121.832031 C 281.742188 108.421875 269.695312 98.644531 256.511719 100.238281 C 244.691406 101.601562 235.597656 111.601562 235.144531 123.648438 L 234.460938 137.742188 C 217.640625 110.464844 183.773438 55.003906 183.316406 54.546875 C 179.910156 48.867188 174.453125 45 168.089844 43.636719 C 161.722656 42.273438 155.359375 43.183594 149.902344 46.820312 C 145.128906 49.773438 141.71875 54.320312 139.902344 59.550781 L 133.765625 49.773438 C 130.355469 44.09375 124.898438 40.226562 118.535156 38.863281 C 112.171875 37.5 105.804688 38.410156 100.351562 42.046875 C 89.210938 49.09375 85.804688 64.324219 92.621094 75.914062 L 96.03125 81.597656 C 90.578125 80.914062 85.121094 82.050781 80.347656 85.007812 C 69.210938 92.054688 65.800781 107.285156 72.617188 118.875 L 84.4375 138.199219 C 78.984375 137.515625 73.527344 138.652344 68.753906 141.605469 C 58.070312 148.199219 54.660156 163.199219 61.707031 174.792969 L 125.128906 278.445312 C 142.628906 307.085938 175.363281 328.679688 209.683594 328.679688 C 222.640625 328.679688 235.597656 325.726562 248.328125 318.90625 C 248.328125 318.90625 248.554688 318.90625 248.554688 318.679688 L 255.828125 313.90625 C 274.011719 302.3125 284.925781 289.128906 290.835938 271.398438 C 295.152344 258.441406 294.699219 246.394531 293.5625 234.347656 C 293.109375 228.664062 292.652344 223.890625 292.652344 223.890625 Z M 282.425781 268.445312 C 277.195312 284.128906 267.421875 295.722656 251.054688 306.175781 L 243.78125 310.722656 C 202.183594 333 154.675781 309.359375 132.855469 273.671875 L 69.4375 170.019531 C 64.890625 162.746094 67.164062 153.199219 74.210938 148.652344 C 81.257812 144.335938 90.578125 146.609375 94.894531 153.652344 L 135.128906 219.574219 C 136.492188 221.621094 139.21875 222.300781 141.265625 221.164062 C 143.3125 219.800781 143.992188 217.074219 142.855469 215.027344 L 81.03125 113.421875 C 76.484375 106.148438 78.757812 96.601562 85.804688 92.054688 C 92.847656 87.507812 102.167969 90.007812 106.488281 97.054688 C 106.488281 97.054688 168.316406 198.207031 168.316406 198.433594 C 169.679688 200.480469 172.40625 201.160156 174.453125 200.023438 C 176.5 198.660156 177.179688 195.933594 176.042969 193.660156 L 100.804688 70.460938 C 96.257812 63.1875 98.53125 53.640625 105.578125 49.09375 C 112.625 44.546875 121.945312 47.046875 126.265625 54.09375 C 126.265625 54.09375 201.503906 177.066406 201.503906 177.292969 C 202.867188 179.339844 205.59375 180.023438 207.640625 178.886719 C 209.6875 177.523438 210.367188 174.792969 209.230469 172.75 C 209.230469 172.75 150.132812 75.914062 150.132812 75.914062 C 145.585938 68.640625 147.859375 59.09375 154.90625 54.546875 C 158.3125 52.503906 162.179688 51.820312 166.042969 52.730469 C 170.132812 53.640625 173.316406 56.140625 175.589844 59.546875 C 176.042969 60.457031 225.371094 140.46875 234.460938 155.246094 C 235.597656 156.835938 237.417969 157.746094 239.460938 157.292969 C 241.28125 156.835938 242.871094 155.019531 242.871094 153.199219 L 244.238281 124.105469 C 244.464844 116.601562 250.144531 110.238281 257.421875 109.328125 C 265.601562 108.421875 273.105469 114.558594 274.242188 122.96875 C 274.242188 122.96875 284.242188 229.574219 284.695312 235.257812 C 285.605469 246.625 286.289062 257.078125 282.425781 268.445312 Z M 282.425781 268.445312 " fill-opacity="1" fill-rule="nonzero"/><path fill="#000000" d="M 77.621094 287.992188 C 67.390625 284.582031 58.527344 273.445312 53.980469 264.351562 C 48.523438 253.667969 47.386719 241.167969 51.023438 230.03125 C 51.707031 227.527344 50.570312 225.027344 48.070312 224.347656 C 45.570312 223.664062 43.070312 224.800781 42.386719 227.300781 C 38.066406 240.714844 39.433594 255.714844 46.023438 268.671875 C 48.75 273.898438 58.753906 291.175781 74.890625 296.628906 C 77.164062 297.3125 79.894531 296.175781 80.574219 293.675781 C 81.257812 291.402344 80.121094 288.902344 77.621094 287.992188 Z M 77.621094 287.992188 " fill-opacity="1" fill-rule="nonzero"/><path fill="#000000" d="M 88.984375 265.261719 C 83.757812 263.445312 78.984375 257.535156 76.484375 252.761719 C 73.527344 247.078125 73.074219 240.484375 74.890625 234.574219 C 75.574219 232.074219 74.4375 229.574219 71.9375 228.894531 C 69.4375 228.210938 66.9375 229.347656 66.253906 231.847656 C 63.527344 240.03125 64.4375 249.125 68.300781 256.851562 C 69.890625 260.035156 76.027344 270.492188 86.03125 273.898438 C 88.304688 274.582031 91.03125 273.445312 91.710938 270.945312 C 92.621094 268.671875 91.484375 266.171875 88.984375 265.261719 Z M 88.984375 265.261719 " fill-opacity="1" fill-rule="nonzero"/><path fill="#000000" d="M 321.519531 84.78125 C 318.339844 80.007812 306.519531 64.09375 289.925781 60.683594 C 287.425781 60.230469 285.152344 61.820312 284.46875 64.324219 C 284.015625 66.824219 285.605469 69.097656 288.105469 69.777344 C 298.5625 71.824219 308.335938 81.597656 313.792969 90.007812 C 320.382812 99.78125 322.886719 112.058594 320.839844 123.648438 C 320.382812 126.148438 321.976562 128.421875 324.476562 128.878906 L 325.386719 128.878906 C 327.429688 128.878906 329.476562 127.285156 329.929688 125.242188 C 332.433594 111.148438 329.476562 96.371094 321.519531 84.78125 Z M 321.519531 84.78125 " fill-opacity="1" fill-rule="nonzero"/><path fill="#000000" d="M 281.742188 84.324219 C 279.242188 83.871094 276.96875 85.460938 276.285156 87.960938 C 275.832031 90.460938 277.421875 92.734375 279.921875 93.417969 C 285.378906 94.554688 290.378906 99.78125 293.335938 104.101562 C 296.746094 109.328125 298.109375 115.695312 297.199219 121.832031 C 296.746094 124.332031 298.335938 126.605469 300.835938 127.058594 C 303.335938 127.515625 305.609375 125.921875 306.0625 123.421875 C 307.65625 115.011719 305.835938 106.148438 300.835938 98.875 C 299.015625 96.144531 291.972656 86.371094 281.742188 84.324219 Z M 281.742188 84.324219 " fill-opacity="1" fill-rule="nonzero"/></svg>