<svg xmlns="http://www.w3.org/2000/svg" xmlns:xlink="http://www.w3.org/1999/xlink" width="500" zoomAndPan="magnify" viewBox="0 0 375 374.999991" height="500" preserveAspectRatio="xMidYMid meet" version="1.0"><defs><clipPath id="7dfb60cf28"><path d="M 95.503906 37 L 278 37 L 278 339.625 L 95.503906 339.625 Z M 95.503906 37 " clip-rule="nonzero"/></clipPath></defs><g clip-path="url(#7dfb60cf28)"><path fill="#000000" d="M 156.621094 148.09375 C 151.753906 119.972656 147.128906 92.84375 142.445312 65.710938 C 139.980469 51.589844 146.945312 40.179688 159.519531 37.714844 C 172.769531 35.125 182.753906 42.277344 185.960938 56.644531 C 192.988281 88.21875 199.890625 119.851562 206.976562 151.421875 C 207.839844 155.371094 209.320312 159.132812 212.464844 163.261719 C 213.757812 158.824219 215.359375 154.382812 216.347656 149.820312 C 222.511719 121.144531 228.488281 92.472656 234.652344 63.796875 C 237.734375 49.308594 246.855469 42.277344 259.183594 44.558594 C 272.929688 47.148438 279.214844 57.386719 276.566406 72.492188 C 271.449219 101.84375 266.703125 131.320312 261.21875 160.613281 C 255.792969 189.65625 260.355469 217.589844 267.257812 245.894531 C 277.921875 289.796875 245.316406 334.566406 200.382812 338.574219 C 188.363281 339.625 175.789062 338.945312 163.957031 336.539062 C 132.707031 330.1875 114.832031 309.039062 106.511719 279.4375 C 103.183594 267.476562 101.828125 254.957031 100.164062 242.625 C 98.5 230.539062 97.574219 218.390625 96.339844 206.242188 C 96.035156 202.976562 95.601562 199.644531 95.601562 196.316406 C 95.539062 179.972656 102.011719 171.957031 117.851562 168.195312 C 120.257812 167.640625 123.707031 166.40625 124.386719 164.558594 C 129.195312 152.535156 138.992188 149.019531 150.519531 147.96875 C 152.246094 147.910156 153.972656 148.09375 156.621094 148.09375 Z M 109.101562 247.25 C 111.75 258.78125 113.601562 270.128906 116.988281 280.917969 C 126.050781 309.46875 145.652344 325.5625 175.542969 329.511719 C 219.058594 335.246094 250.429688 313.292969 258.691406 270.867188 C 261.957031 254.035156 255.980469 238.679688 252.09375 222.953125 C 250.183594 215.121094 245.128906 210.066406 237.488281 207.722656 C 219.488281 202.171875 201.492188 196.746094 183.433594 191.320312 C 181.277344 190.703125 178.933594 190.703125 176.652344 190.394531 C 171.105469 189.71875 168.578125 192.367188 168.578125 197.796875 C 168.578125 210.621094 175.234375 219.808594 185.898438 225.484375 C 193.417969 229.492188 202.109375 231.15625 210.183594 234.238281 C 212.464844 235.101562 215.914062 237.015625 216.160156 238.742188 C 217.394531 249.46875 217.824219 260.324219 218.628906 272.285156 C 210.183594 264.761719 208.394531 255.144531 206.300781 245.03125 C 189.90625 259.152344 185.28125 278.207031 180.476562 297.261719 C 174.558594 275.308594 181.277344 256.992188 196.191406 240.527344 C 193.171875 239.605469 191.199219 238.988281 189.226562 238.433594 C 182.386719 251.074219 172.707031 256.808594 158.71875 254.28125 C 157.175781 254.035156 155.082031 255.390625 153.664062 256.5 C 143.246094 264.640625 130.179688 264.578125 119.949219 256.191406 C 116.742188 253.476562 113.476562 250.828125 109.101562 247.25 Z M 248.273438 200.632812 C 249.136719 189.46875 249.261719 178.246094 250.984375 167.210938 C 256.039062 135.019531 261.773438 102.894531 267.195312 70.703125 C 268.800781 61.085938 265.964844 55.84375 258.257812 54.238281 C 250.371094 52.636719 245.933594 56.089844 243.835938 65.957031 C 239.089844 88.09375 234.652344 110.355469 229.660156 132.492188 C 227.070312 144.148438 224.113281 155.800781 220.351562 167.085938 C 219.304688 170.109375 214.621094 173.746094 211.539062 173.746094 C 208.457031 173.808594 204.203125 170.292969 202.601562 167.210938 C 199.703125 161.660156 197.917969 155.371094 196.5 149.203125 C 189.71875 119.109375 183.25 89.019531 176.589844 58.863281 C 174.558594 49.492188 169.011719 45.296875 161.183594 47.023438 C 153.664062 48.691406 150.089844 54.734375 151.753906 64.292969 C 157.546875 97.652344 164.078125 130.949219 169.195312 164.433594 C 170.984375 176.089844 174.988281 180.714844 187.253906 183.058594 C 207.902344 187.003906 227.8125 194.527344 248.273438 200.632812 Z M 179.859375 235.039062 C 174.867188 229.492188 169.566406 224.679688 165.496094 218.945312 C 159.027344 209.757812 156.5 199.335938 161.246094 188.605469 C 165.804688 178.308594 159.828125 169.429688 158.46875 159.996094 C 158.347656 159.253906 156.5 158.578125 155.390625 158.207031 C 143.492188 154.445312 131.414062 163.261719 132.832031 175.410156 C 135.417969 197.117188 142.507812 217.527344 152.367188 236.953125 C 155.019531 242.132812 159.273438 246.015625 165.742188 245.398438 C 172.707031 244.722656 177.761719 241.390625 179.859375 235.039062 Z M 148.117188 248.175781 C 134.496094 226.222656 128.207031 202.113281 122.90625 177.816406 C 111.996094 178.679688 106.386719 182.070312 105.710938 189.902344 C 103.738281 212.101562 110.578125 231.710938 125.496094 248.113281 C 131.96875 255.265625 140.472656 254.648438 148.117188 248.175781 Z M 148.117188 248.175781 " fill-opacity="1" fill-rule="nonzero"/></g></svg>