<svg xmlns="http://www.w3.org/2000/svg" xmlns:xlink="http://www.w3.org/1999/xlink" width="500" zoomAndPan="magnify" viewBox="0 0 375 374.999991" height="500" preserveAspectRatio="xMidYMid meet" version="1.0"><defs><clipPath id="279506871e"><path d="M 332 56 L 349.5 56 L 349.5 74 L 332 74 Z M 332 56 " clip-rule="nonzero"/></clipPath><clipPath id="b93bedc24e"><path d="M 333 37.5 L 346 37.5 L 346 50 L 333 50 Z M 333 37.5 " clip-rule="nonzero"/></clipPath><clipPath id="f9dd4f3fc3"><path d="M 332 56 L 349.5 56 L 349.5 74 L 332 74 Z M 332 56 " clip-rule="nonzero"/></clipPath><clipPath id="83ce1a37fd"><path d="M 333 37.5 L 346 37.5 L 346 50 L 333 50 Z M 333 37.5 " clip-rule="nonzero"/></clipPath><clipPath id="4ed1f82d0a"><path d="M 37.5 111 L 284 111 L 284 349.5 L 37.5 349.5 Z M 37.5 111 " clip-rule="nonzero"/></clipPath><clipPath id="6dd4e404b6"><path d="M 37.5 111 L 274 111 L 274 339 L 37.5 339 Z M 37.5 111 " clip-rule="nonzero"/></clipPath></defs><path fill="#ffffff" d="M 324.484375 54.910156 C 324.777344 54.410156 324.226562 53.835938 323.714844 54.109375 L 316.792969 57.804688 C 316.609375 57.902344 316.382812 57.894531 316.207031 57.78125 L 309.253906 53.285156 C 308.742188 52.953125 308.132812 53.539062 308.441406 54.0625 L 312.660156 61.191406 C 312.765625 61.371094 312.765625 61.59375 312.660156 61.773438 L 308.695312 68.542969 C 308.402344 69.046875 308.953125 69.617188 309.464844 69.34375 L 316.386719 65.648438 C 316.570312 65.550781 316.792969 65.5625 316.972656 65.675781 L 323.925781 70.171875 C 324.4375 70.5 325.046875 69.917969 324.734375 69.394531 L 320.519531 62.265625 C 320.414062 62.085938 320.410156 61.859375 320.515625 61.679688 Z M 324.484375 54.910156 " fill-opacity="1" fill-rule="nonzero"/><g clip-path="url(#279506871e)"><path fill="#ffffff" d="M 348.898438 58.621094 C 349.191406 58.117188 348.640625 57.546875 348.128906 57.820312 L 341.207031 61.515625 C 341.023438 61.613281 340.796875 61.605469 340.625 61.488281 L 333.667969 56.992188 C 333.15625 56.664062 332.546875 57.246094 332.859375 57.773438 L 337.074219 64.898438 C 337.179688 65.082031 337.183594 65.304688 337.074219 65.484375 L 333.113281 72.253906 C 332.816406 72.753906 333.367188 73.328125 333.878906 73.054688 L 340.800781 69.359375 C 340.984375 69.261719 341.210938 69.269531 341.386719 69.386719 L 348.339844 73.882812 C 348.851562 74.210938 349.460938 73.625 349.148438 73.101562 L 344.933594 65.972656 C 344.828125 65.792969 344.824219 65.570312 344.933594 65.390625 Z M 348.898438 58.621094 " fill-opacity="1" fill-rule="nonzero"/></g><g clip-path="url(#b93bedc24e)"><path fill="#ffffff" d="M 345.003906 38.882812 C 345.203125 38.539062 344.828125 38.148438 344.476562 38.335938 L 339.730469 40.867188 C 339.605469 40.933594 339.453125 40.929688 339.332031 40.851562 L 334.5625 37.769531 C 334.214844 37.542969 333.796875 37.941406 334.007812 38.300781 L 336.898438 43.1875 C 336.972656 43.3125 336.972656 43.464844 336.898438 43.589844 L 334.183594 48.226562 C 333.980469 48.570312 334.359375 48.964844 334.710938 48.777344 L 339.453125 46.246094 C 339.578125 46.175781 339.734375 46.183594 339.855469 46.261719 L 344.621094 49.34375 C 344.972656 49.570312 345.386719 49.167969 345.175781 48.808594 L 342.285156 43.921875 C 342.210938 43.800781 342.210938 43.648438 342.285156 43.523438 Z M 345.003906 38.882812 " fill-opacity="1" fill-rule="nonzero"/></g><path fill="#ffffff" d="M 320.605469 88.777344 L 308.574219 76.261719 C 308.378906 76.058594 308.152344 75.898438 307.894531 75.785156 C 307.632812 75.671875 307.363281 75.613281 307.082031 75.605469 C 306.796875 75.601562 306.523438 75.648438 306.261719 75.753906 C 306 75.855469 305.765625 76.003906 305.5625 76.203125 L 39.023438 332.382812 C 38.820312 332.578125 38.664062 332.804688 38.550781 333.0625 C 38.433594 333.324219 38.375 333.59375 38.371094 333.875 C 38.363281 334.160156 38.414062 334.433594 38.515625 334.695312 C 38.621094 334.960938 38.769531 335.191406 38.964844 335.398438 L 50.996094 347.914062 C 51.191406 348.117188 51.417969 348.277344 51.679688 348.390625 C 51.9375 348.503906 52.207031 348.5625 52.492188 348.570312 C 52.773438 348.574219 53.046875 348.527344 53.308594 348.421875 C 53.574219 348.320312 53.808594 348.171875 54.011719 347.972656 L 320.546875 91.792969 C 320.75 91.597656 320.910156 91.371094 321.023438 91.109375 C 321.136719 90.851562 321.195312 90.582031 321.203125 90.296875 C 321.207031 90.015625 321.160156 89.742188 321.054688 89.480469 C 320.953125 89.214844 320.804688 88.984375 320.605469 88.777344 Z M 320.605469 88.777344 " fill-opacity="1" fill-rule="nonzero"/><path fill="#ffffff" d="M 296.960938 93.476562 C 297.808594 92.664062 297.835938 91.3125 297.019531 90.464844 L 295.472656 88.851562 C 294.65625 88.003906 293.308594 87.976562 292.457031 88.792969 L 39.023438 332.378906 C 38.175781 333.195312 38.148438 334.546875 38.964844 335.394531 L 41.992188 338.542969 Z M 296.960938 93.476562 " fill-opacity="1" fill-rule="nonzero"/><path fill="#ffffff" d="M 320.695312 91.652344 C 321.460938 90.914062 321.484375 89.691406 320.746094 88.925781 L 308.433594 76.113281 C 307.695312 75.347656 306.476562 75.320312 305.707031 76.058594 L 268.8125 111.523438 L 283.800781 127.113281 Z M 320.695312 91.652344 " fill-opacity="1" fill-rule="nonzero"/><path fill="#ffffff" d="M 311.601562 79.40625 L 308.503906 76.183594 C 307.726562 75.375 306.441406 75.351562 305.632812 76.125 L 268.8125 111.519531 L 273.316406 116.203125 Z M 311.601562 79.40625 " fill-opacity="1" fill-rule="nonzero"/><path fill="#ffe600" d="M 324.484375 54.910156 C 324.777344 54.410156 324.226562 53.835938 323.714844 54.109375 L 316.792969 57.804688 C 316.609375 57.902344 316.382812 57.894531 316.207031 57.78125 L 309.253906 53.285156 C 308.742188 52.953125 308.132812 53.539062 308.441406 54.0625 L 312.660156 61.191406 C 312.765625 61.371094 312.765625 61.59375 312.660156 61.773438 L 308.695312 68.542969 C 308.402344 69.046875 308.953125 69.617188 309.464844 69.34375 L 316.386719 65.648438 C 316.570312 65.550781 316.792969 65.5625 316.972656 65.675781 L 323.925781 70.171875 C 324.4375 70.5 325.046875 69.917969 324.734375 69.394531 L 320.519531 62.265625 C 320.414062 62.085938 320.410156 61.859375 320.515625 61.679688 Z M 324.484375 54.910156 " fill-opacity="1" fill-rule="nonzero"/><g clip-path="url(#f9dd4f3fc3)"><path fill="#ffe600" d="M 348.898438 58.621094 C 349.191406 58.117188 348.640625 57.546875 348.128906 57.820312 L 341.207031 61.515625 C 341.023438 61.613281 340.796875 61.605469 340.625 61.488281 L 333.667969 56.992188 C 333.15625 56.664062 332.546875 57.246094 332.859375 57.773438 L 337.074219 64.898438 C 337.179688 65.082031 337.183594 65.304688 337.074219 65.484375 L 333.113281 72.253906 C 332.816406 72.753906 333.367188 73.328125 333.878906 73.054688 L 340.800781 69.359375 C 340.984375 69.261719 341.210938 69.269531 341.386719 69.386719 L 348.339844 73.882812 C 348.851562 74.210938 349.460938 73.628906 349.148438 73.101562 L 344.933594 65.972656 C 344.828125 65.792969 344.824219 65.570312 344.933594 65.390625 Z M 348.898438 58.621094 " fill-opacity="1" fill-rule="nonzero"/></g><g clip-path="url(#83ce1a37fd)"><path fill="#ffe600" d="M 345.003906 38.882812 C 345.203125 38.539062 344.828125 38.148438 344.476562 38.335938 L 339.730469 40.867188 C 339.605469 40.933594 339.453125 40.929688 339.332031 40.851562 L 334.5625 37.769531 C 334.214844 37.542969 333.796875 37.941406 334.007812 38.300781 L 336.898438 43.1875 C 336.972656 43.3125 336.972656 43.464844 336.898438 43.589844 L 334.183594 48.226562 C 333.980469 48.570312 334.359375 48.964844 334.710938 48.777344 L 339.453125 46.246094 C 339.578125 46.175781 339.734375 46.183594 339.855469 46.261719 L 344.621094 49.34375 C 344.972656 49.570312 345.386719 49.167969 345.175781 48.808594 L 342.285156 43.921875 C 342.210938 43.800781 342.210938 43.648438 342.285156 43.523438 Z M 345.003906 38.882812 " fill-opacity="1" fill-rule="nonzero"/></g><g clip-path="url(#4ed1f82d0a)"><path fill="#1e1e1e" d="M 283.726562 127.183594 L 268.738281 111.59375 L 37.488281 333.859375 L 52.476562 349.449219 Z M 283.726562 127.183594 " fill-opacity="1" fill-rule="nonzero"/></g><g clip-path="url(#6dd4e404b6)"><path fill="#0e0e0e" d="M 273.25 116.269531 L 268.746094 111.582031 L 37.488281 333.859375 L 41.992188 338.542969 Z M 273.25 116.269531 " fill-opacity="1" fill-rule="nonzero"/></g><path fill="#ffffff" d="M 320.695312 91.652344 C 321.460938 90.914062 321.484375 89.691406 320.746094 88.925781 L 308.433594 76.113281 C 307.695312 75.347656 306.476562 75.320312 305.707031 76.058594 L 268.8125 111.523438 L 283.800781 127.113281 Z M 320.695312 91.652344 " fill-opacity="1" fill-rule="nonzero"/><path fill="#f9f9f9" d="M 311.601562 79.40625 L 308.503906 76.183594 C 307.726562 75.375 306.441406 75.351562 305.632812 76.125 L 268.8125 111.519531 L 273.316406 116.203125 Z M 311.601562 79.40625 " fill-opacity="1" fill-rule="nonzero"/></svg>