<svg xmlns="http://www.w3.org/2000/svg" xmlns:xlink="http://www.w3.org/1999/xlink" width="500" zoomAndPan="magnify" viewBox="0 0 375 374.999991" height="500" preserveAspectRatio="xMidYMid meet" version="1.0"><defs><clipPath id="5760a5f923"><path d="M 12.710938 12.710938 L 362.210938 12.710938 L 362.210938 362.210938 L 12.710938 362.210938 Z M 12.710938 12.710938 " clip-rule="nonzero"/></clipPath></defs><g clip-path="url(#5760a5f923)"><path fill="#000000" d="M 187.460938 362.210938 C 184.597656 362.210938 181.742188 362.140625 178.886719 362 C 176.027344 361.859375 173.175781 361.648438 170.332031 361.367188 C 167.484375 361.085938 164.648438 360.738281 161.816406 360.316406 C 158.988281 359.898438 156.171875 359.410156 153.367188 358.851562 C 150.5625 358.292969 147.773438 357.667969 145 356.972656 C 142.222656 356.277344 139.46875 355.515625 136.730469 354.683594 C 133.996094 353.855469 131.28125 352.957031 128.585938 351.996094 C 125.894531 351.03125 123.226562 350 120.585938 348.90625 C 117.941406 347.8125 115.328125 346.652344 112.746094 345.429688 C 110.160156 344.207031 107.605469 342.921875 105.082031 341.574219 C 102.5625 340.226562 100.074219 338.816406 97.621094 337.347656 C 95.167969 335.878906 92.75 334.347656 90.375 332.757812 C 87.996094 331.167969 85.65625 329.523438 83.359375 327.820312 C 81.0625 326.117188 78.808594 324.355469 76.597656 322.542969 C 74.386719 320.730469 72.222656 318.859375 70.105469 316.941406 C 67.984375 315.019531 65.914062 313.046875 63.890625 311.027344 C 61.871094 309.003906 59.898438 306.933594 57.976562 304.8125 C 56.058594 302.695312 54.191406 300.53125 52.375 298.320312 C 50.5625 296.109375 48.800781 293.855469 47.097656 291.558594 C 45.394531 289.261719 43.75 286.921875 42.160156 284.546875 C 40.570312 282.167969 39.042969 279.75 37.570312 277.296875 C 36.101562 274.847656 34.691406 272.359375 33.34375 269.835938 C 31.996094 267.3125 30.710938 264.761719 29.488281 262.175781 C 28.265625 259.589844 27.105469 256.976562 26.011719 254.332031 C 24.917969 251.691406 23.886719 249.023438 22.925781 246.332031 C 21.960938 243.636719 21.0625 240.921875 20.234375 238.1875 C 19.402344 235.449219 18.640625 232.695312 17.945312 229.921875 C 17.25 227.144531 16.625 224.355469 16.066406 221.550781 C 15.507812 218.746094 15.019531 215.929688 14.601562 213.101562 C 14.179688 210.273438 13.832031 207.433594 13.550781 204.589844 C 13.269531 201.742188 13.058594 198.890625 12.917969 196.035156 C 12.78125 193.175781 12.710938 190.320312 12.710938 187.460938 C 12.710938 184.597656 12.78125 181.742188 12.917969 178.886719 C 13.058594 176.027344 13.269531 173.175781 13.550781 170.332031 C 13.832031 167.484375 14.179688 164.648438 14.601562 161.816406 C 15.019531 158.988281 15.507812 156.171875 16.066406 153.367188 C 16.625 150.5625 17.25 147.773438 17.945312 145 C 18.640625 142.222656 19.402344 139.46875 20.234375 136.730469 C 21.0625 133.996094 21.960938 131.28125 22.925781 128.585938 C 23.886719 125.894531 24.917969 123.226562 26.011719 120.585938 C 27.105469 117.941406 28.265625 115.328125 29.488281 112.746094 C 30.710938 110.160156 31.996094 107.605469 33.34375 105.082031 C 34.691406 102.5625 36.101562 100.074219 37.570312 97.621094 C 39.042969 95.167969 40.570312 92.75 42.160156 90.375 C 43.75 87.996094 45.394531 85.65625 47.097656 83.359375 C 48.800781 81.0625 50.5625 78.808594 52.375 76.597656 C 54.191406 74.386719 56.058594 72.222656 57.976562 70.105469 C 59.898438 67.984375 61.871094 65.914062 63.890625 63.890625 C 65.914062 61.871094 67.984375 59.898438 70.105469 57.976562 C 72.222656 56.058594 74.386719 54.191406 76.597656 52.375 C 78.808594 50.5625 81.0625 48.800781 83.359375 47.097656 C 85.65625 45.394531 87.996094 43.75 90.375 42.160156 C 92.75 40.570312 95.167969 39.042969 97.621094 37.570312 C 100.074219 36.101562 102.5625 34.691406 105.082031 33.34375 C 107.605469 31.996094 110.160156 30.710938 112.746094 29.488281 C 115.328125 28.265625 117.941406 27.105469 120.585938 26.011719 C 123.226562 24.917969 125.894531 23.886719 128.589844 22.925781 C 131.28125 21.960938 133.996094 21.0625 136.730469 20.234375 C 139.46875 19.402344 142.222656 18.640625 145 17.945312 C 147.773438 17.25 150.5625 16.625 153.367188 16.066406 C 156.171875 15.507812 158.988281 15.019531 161.816406 14.601562 C 164.648438 14.179688 167.484375 13.832031 170.332031 13.550781 C 173.175781 13.269531 176.027344 13.058594 178.886719 12.917969 C 181.742188 12.78125 184.597656 12.710938 187.460938 12.710938 C 190.320312 12.710938 193.175781 12.78125 196.035156 12.917969 C 198.890625 13.058594 201.742188 13.269531 204.589844 13.550781 C 207.433594 13.832031 210.273438 14.179688 213.101562 14.601562 C 215.929688 15.019531 218.746094 15.507812 221.550781 16.066406 C 224.355469 16.625 227.144531 17.25 229.921875 17.945312 C 232.695312 18.640625 235.449219 19.402344 238.1875 20.234375 C 240.921875 21.0625 243.636719 21.960938 246.332031 22.925781 C 249.023438 23.886719 251.691406 24.917969 254.332031 26.011719 C 256.976562 27.105469 259.589844 28.265625 262.175781 29.488281 C 264.761719 30.710938 267.3125 31.996094 269.835938 33.34375 C 272.359375 34.691406 274.847656 36.101562 277.296875 37.570312 C 279.75 39.042969 282.167969 40.570312 284.546875 42.160156 C 286.921875 43.75 289.261719 45.394531 291.558594 47.097656 C 293.855469 48.800781 296.109375 50.5625 298.320312 52.375 C 300.53125 54.191406 302.695312 56.058594 304.8125 57.976562 C 306.933594 59.898438 309.003906 61.871094 311.027344 63.890625 C 313.046875 65.914062 315.019531 67.984375 316.941406 70.105469 C 318.859375 72.222656 320.730469 74.386719 322.542969 76.597656 C 324.355469 78.808594 326.117188 81.0625 327.820312 83.359375 C 329.523438 85.65625 331.167969 87.996094 332.757812 90.375 C 334.347656 92.75 335.878906 95.167969 337.347656 97.621094 C 338.816406 100.074219 340.226562 102.5625 341.574219 105.082031 C 342.921875 107.605469 344.207031 110.160156 345.429688 112.746094 C 346.652344 115.328125 347.8125 117.941406 348.90625 120.585938 C 350 123.226562 351.03125 125.894531 351.996094 128.589844 C 352.957031 131.28125 353.855469 133.996094 354.683594 136.730469 C 355.515625 139.46875 356.277344 142.222656 356.972656 145 C 357.667969 147.773438 358.292969 150.5625 358.851562 153.367188 C 359.410156 156.171875 359.898438 158.988281 360.316406 161.816406 C 360.738281 164.648438 361.085938 167.484375 361.367188 170.332031 C 361.648438 173.175781 361.859375 176.027344 362 178.886719 C 362.140625 181.742188 362.210938 184.597656 362.210938 187.460938 C 362.207031 190.320312 362.132812 193.175781 361.988281 196.03125 C 361.847656 198.886719 361.632812 201.738281 361.351562 204.582031 C 361.066406 207.425781 360.714844 210.261719 360.292969 213.089844 C 359.871094 215.917969 359.378906 218.734375 358.820312 221.539062 C 358.257812 224.339844 357.628906 227.128906 356.933594 229.902344 C 356.238281 232.675781 355.472656 235.429688 354.640625 238.164062 C 353.808594 240.898438 352.910156 243.613281 351.945312 246.304688 C 350.980469 248.996094 349.949219 251.660156 348.855469 254.300781 C 347.757812 256.945312 346.597656 259.554688 345.375 262.140625 C 344.152344 264.722656 342.867188 267.277344 341.515625 269.796875 C 340.167969 272.316406 338.757812 274.804688 337.289062 277.253906 C 335.816406 279.707031 334.285156 282.121094 332.699219 284.5 C 331.109375 286.875 329.460938 289.210938 327.757812 291.507812 C 326.054688 293.804688 324.296875 296.054688 322.480469 298.265625 C 320.667969 300.476562 318.800781 302.640625 316.882812 304.757812 C 314.960938 306.875 312.988281 308.945312 310.96875 310.96875 C 308.945312 312.988281 306.875 314.960938 304.757812 316.882812 C 302.640625 318.800781 300.476562 320.667969 298.265625 322.480469 C 296.054688 324.296875 293.804688 326.054688 291.507812 327.757812 C 289.210938 329.460938 286.875 331.109375 284.5 332.699219 C 282.121094 334.285156 279.707031 335.816406 277.253906 337.289062 C 274.804688 338.757812 272.316406 340.167969 269.796875 341.515625 C 267.277344 342.867188 264.722656 344.152344 262.140625 345.375 C 259.554688 346.597656 256.945312 347.757812 254.300781 348.855469 C 251.660156 349.949219 248.996094 350.980469 246.304688 351.945312 C 243.613281 352.910156 240.898438 353.808594 238.164062 354.640625 C 235.429688 355.472656 232.675781 356.238281 229.902344 356.933594 C 227.128906 357.628906 224.339844 358.257812 221.539062 358.820312 C 218.734375 359.378906 215.917969 359.871094 213.089844 360.292969 C 210.261719 360.714844 207.425781 361.066406 204.582031 361.351562 C 201.738281 361.632812 198.886719 361.847656 196.03125 361.988281 C 193.175781 362.132812 190.320312 362.207031 187.460938 362.210938 Z M 187.460938 24.359375 C 184.789062 24.359375 182.121094 24.425781 179.457031 24.554688 C 176.789062 24.6875 174.128906 24.882812 171.472656 25.144531 C 168.816406 25.40625 166.167969 25.734375 163.527344 26.125 C 160.886719 26.515625 158.257812 26.972656 155.640625 27.492188 C 153.023438 28.015625 150.417969 28.597656 147.828125 29.246094 C 145.238281 29.894531 142.667969 30.609375 140.113281 31.382812 C 137.558594 32.15625 135.027344 32.996094 132.511719 33.894531 C 130 34.792969 127.511719 35.753906 125.042969 36.773438 C 122.578125 37.796875 120.136719 38.878906 117.726562 40.019531 C 115.3125 41.160156 112.929688 42.359375 110.574219 43.617188 C 108.21875 44.875 105.898438 46.191406 103.609375 47.5625 C 101.320312 48.9375 99.066406 50.363281 96.847656 51.847656 C 94.625 53.328125 92.445312 54.867188 90.300781 56.457031 C 88.15625 58.046875 86.054688 59.6875 83.988281 61.382812 C 81.925781 63.074219 79.90625 64.816406 77.929688 66.609375 C 75.949219 68.402344 74.019531 70.242188 72.128906 72.128906 C 70.242188 74.019531 68.402344 75.949219 66.609375 77.929688 C 64.816406 79.90625 63.074219 81.925781 61.382812 83.988281 C 59.6875 86.054688 58.046875 88.15625 56.457031 90.300781 C 54.867188 92.445312 53.328125 94.625 51.847656 96.847656 C 50.363281 99.066406 48.9375 101.320312 47.5625 103.609375 C 46.191406 105.898438 44.875 108.21875 43.617188 110.574219 C 42.359375 112.929688 41.160156 115.3125 40.019531 117.726562 C 38.878906 120.136719 37.796875 122.578125 36.773438 125.042969 C 35.753906 127.511719 34.792969 130 33.894531 132.511719 C 32.996094 135.027344 32.15625 137.558594 31.382812 140.113281 C 30.609375 142.667969 29.894531 145.238281 29.246094 147.828125 C 28.597656 150.417969 28.015625 153.023438 27.492188 155.640625 C 26.972656 158.257812 26.515625 160.886719 26.125 163.527344 C 25.734375 166.167969 25.40625 168.816406 25.144531 171.472656 C 24.882812 174.128906 24.6875 176.789062 24.554688 179.457031 C 24.425781 182.121094 24.359375 184.789062 24.359375 187.460938 C 24.359375 190.128906 24.425781 192.796875 24.554688 195.460938 C 24.6875 198.128906 24.882812 200.789062 25.144531 203.445312 C 25.40625 206.101562 25.734375 208.75 26.125 211.390625 C 26.515625 214.03125 26.972656 216.660156 27.492188 219.277344 C 28.015625 221.898438 28.597656 224.5 29.246094 227.089844 C 29.894531 229.679688 30.609375 232.25 31.382812 234.804688 C 32.15625 237.359375 32.996094 239.894531 33.894531 242.40625 C 34.792969 244.917969 35.753906 247.410156 36.773438 249.875 C 37.796875 252.339844 38.878906 254.78125 40.019531 257.195312 C 41.160156 259.605469 42.359375 261.988281 43.617188 264.34375 C 44.875 266.699219 46.191406 269.019531 47.5625 271.308594 C 48.9375 273.597656 50.363281 275.851562 51.847656 278.074219 C 53.328125 280.292969 54.867188 282.472656 56.457031 284.617188 C 58.046875 286.761719 59.6875 288.867188 61.382812 290.929688 C 63.074219 292.992188 64.816406 295.011719 66.609375 296.992188 C 68.402344 298.96875 70.242188 300.902344 72.128906 302.789062 C 74.019531 304.675781 75.949219 306.515625 77.929688 308.308594 C 79.90625 310.101562 81.925781 311.84375 83.988281 313.539062 C 86.054688 315.230469 88.15625 316.871094 90.300781 318.460938 C 92.445312 320.050781 94.625 321.589844 96.847656 323.070312 C 99.066406 324.554688 101.320312 325.984375 103.609375 327.355469 C 105.898438 328.726562 108.21875 330.042969 110.574219 331.300781 C 112.929688 332.558594 115.3125 333.757812 117.726562 334.898438 C 120.136719 336.042969 122.578125 337.121094 125.042969 338.144531 C 127.511719 339.164062 130 340.125 132.511719 341.023438 C 135.027344 341.925781 137.558594 342.761719 140.113281 343.535156 C 142.667969 344.3125 145.238281 345.023438 147.828125 345.671875 C 150.417969 346.320312 153.023438 346.90625 155.640625 347.425781 C 158.257812 347.945312 160.886719 348.402344 163.527344 348.792969 C 166.167969 349.1875 168.816406 349.511719 171.472656 349.773438 C 174.128906 350.035156 176.789062 350.230469 179.457031 350.363281 C 182.121094 350.492188 184.789062 350.558594 187.460938 350.558594 C 190.128906 350.558594 192.796875 350.492188 195.460938 350.363281 C 198.128906 350.230469 200.789062 350.035156 203.445312 349.773438 C 206.101562 349.511719 208.75 349.1875 211.390625 348.792969 C 214.03125 348.402344 216.660156 347.945312 219.277344 347.425781 C 221.898438 346.90625 224.5 346.320312 227.089844 345.671875 C 229.679688 345.023438 232.25 344.3125 234.804688 343.535156 C 237.359375 342.761719 239.894531 341.925781 242.40625 341.023438 C 244.917969 340.125 247.410156 339.164062 249.875 338.144531 C 252.339844 337.121094 254.78125 336.042969 257.195312 334.898438 C 259.605469 333.757812 261.988281 332.558594 264.34375 331.300781 C 266.699219 330.042969 269.019531 328.726562 271.308594 327.355469 C 273.597656 325.984375 275.851562 324.554688 278.074219 323.070312 C 280.292969 321.589844 282.472656 320.050781 284.617188 318.460938 C 286.761719 316.871094 288.867188 315.230469 290.929688 313.539062 C 292.992188 311.84375 295.011719 310.101562 296.992188 308.308594 C 298.96875 306.515625 300.902344 304.675781 302.789062 302.789062 C 304.675781 300.902344 306.515625 298.96875 308.308594 296.992188 C 310.101562 295.011719 311.84375 292.992188 313.539062 290.929688 C 315.230469 288.867188 316.871094 286.761719 318.460938 284.617188 C 320.050781 282.472656 321.589844 280.292969 323.070312 278.074219 C 324.554688 275.851562 325.984375 273.597656 327.355469 271.308594 C 328.726562 269.019531 330.042969 266.699219 331.300781 264.34375 C 332.558594 261.988281 333.757812 259.605469 334.898438 257.195312 C 336.042969 254.78125 337.121094 252.339844 338.144531 249.875 C 339.164062 247.410156 340.125 244.917969 341.023438 242.40625 C 341.925781 239.894531 342.761719 237.359375 343.535156 234.804688 C 344.3125 232.25 345.023438 229.679688 345.671875 227.089844 C 346.320312 224.5 346.90625 221.898438 347.425781 219.277344 C 347.945312 216.660156 348.402344 214.03125 348.792969 211.390625 C 349.1875 208.75 349.511719 206.101562 349.773438 203.445312 C 350.035156 200.789062 350.230469 198.128906 350.363281 195.460938 C 350.492188 192.796875 350.558594 190.128906 350.558594 187.460938 C 350.554688 184.789062 350.488281 182.125 350.355469 179.460938 C 350.21875 176.792969 350.019531 174.132812 349.757812 171.480469 C 349.492188 168.824219 349.164062 166.175781 348.769531 163.535156 C 348.375 160.898438 347.917969 158.269531 347.394531 155.652344 C 346.871094 153.035156 346.285156 150.433594 345.636719 147.847656 C 344.984375 145.257812 344.269531 142.6875 343.496094 140.132812 C 342.71875 137.582031 341.878906 135.050781 340.980469 132.539062 C 340.078125 130.027344 339.117188 127.539062 338.09375 125.074219 C 337.070312 122.609375 335.988281 120.167969 334.847656 117.757812 C 333.707031 115.347656 332.503906 112.964844 331.246094 110.613281 C 329.988281 108.257812 328.671875 105.9375 327.296875 103.648438 C 325.925781 101.363281 324.496094 99.109375 323.015625 96.890625 C 321.53125 94.671875 319.996094 92.492188 318.40625 90.347656 C 316.816406 88.207031 315.171875 86.101562 313.480469 84.039062 C 311.789062 81.976562 310.042969 79.957031 308.253906 77.980469 C 306.460938 76.003906 304.621094 74.070312 302.734375 72.183594 C 300.847656 70.296875 298.914062 68.457031 296.9375 66.667969 C 294.960938 64.875 292.941406 63.132812 290.878906 61.4375 C 288.816406 59.746094 286.714844 58.105469 284.570312 56.511719 C 282.429688 54.921875 280.246094 53.386719 278.027344 51.902344 C 275.8125 50.421875 273.558594 48.992188 271.269531 47.621094 C 268.980469 46.246094 266.660156 44.933594 264.308594 43.671875 C 261.953125 42.414062 259.574219 41.214844 257.160156 40.070312 C 254.75 38.929688 252.3125 37.847656 249.847656 36.824219 C 247.382812 35.800781 244.894531 34.839844 242.382812 33.941406 C 239.871094 33.039062 237.335938 32.199219 234.785156 31.425781 C 232.230469 30.648438 229.660156 29.933594 227.074219 29.285156 C 224.484375 28.632812 221.882812 28.046875 219.265625 27.523438 C 216.648438 27 214.019531 26.542969 211.382812 26.148438 C 208.742188 25.753906 206.09375 25.425781 203.441406 25.160156 C 200.785156 24.898438 198.125 24.699219 195.460938 24.566406 C 192.792969 24.429688 190.128906 24.363281 187.460938 24.359375 Z M 187.460938 24.359375 " fill-opacity="1" fill-rule="nonzero"/></g><path fill="#000000" d="M 187.460938 338.910156 C 184.980469 338.910156 182.503906 338.847656 180.027344 338.726562 C 177.550781 338.605469 175.082031 338.421875 172.613281 338.179688 C 170.148438 337.9375 167.6875 337.632812 165.238281 337.269531 C 162.785156 336.90625 160.34375 336.484375 157.914062 336 C 155.480469 335.515625 153.0625 334.972656 150.660156 334.371094 C 148.253906 333.769531 145.867188 333.109375 143.496094 332.386719 C 141.125 331.667969 138.769531 330.890625 136.4375 330.054688 C 134.105469 329.222656 131.792969 328.328125 129.503906 327.382812 C 127.210938 326.433594 124.945312 325.429688 122.707031 324.367188 C 120.464844 323.308594 118.253906 322.195312 116.066406 321.027344 C 113.878906 319.859375 111.722656 318.636719 109.597656 317.363281 C 107.472656 316.089844 105.378906 314.761719 103.316406 313.386719 C 101.257812 312.007812 99.230469 310.582031 97.242188 309.105469 C 95.25 307.628906 93.296875 306.105469 91.378906 304.53125 C 89.464844 302.960938 87.589844 301.339844 85.75 299.675781 C 83.914062 298.011719 82.121094 296.304688 80.367188 294.550781 C 78.617188 292.796875 76.90625 291.003906 75.242188 289.167969 C 73.578125 287.332031 71.960938 285.453125 70.386719 283.539062 C 68.816406 281.621094 67.289062 279.667969 65.8125 277.679688 C 64.335938 275.6875 62.910156 273.660156 61.535156 271.601562 C 60.15625 269.539062 58.832031 267.445312 57.554688 265.320312 C 56.28125 263.195312 55.0625 261.039062 53.890625 258.851562 C 52.722656 256.667969 51.609375 254.453125 50.550781 252.210938 C 49.492188 249.972656 48.488281 247.707031 47.539062 245.417969 C 46.589844 243.125 45.699219 240.816406 44.863281 238.480469 C 44.027344 236.148438 43.25 233.792969 42.53125 231.421875 C 41.8125 229.050781 41.152344 226.664062 40.546875 224.257812 C 39.945312 221.855469 39.402344 219.4375 38.917969 217.003906 C 38.4375 214.574219 38.011719 212.132812 37.648438 209.683594 C 37.285156 207.230469 36.980469 204.769531 36.738281 202.304688 C 36.496094 199.835938 36.3125 197.367188 36.191406 194.890625 C 36.070312 192.414062 36.007812 189.9375 36.007812 187.460938 C 36.007812 184.980469 36.070312 182.503906 36.191406 180.027344 C 36.3125 177.550781 36.496094 175.082031 36.738281 172.613281 C 36.980469 170.148438 37.285156 167.6875 37.648438 165.238281 C 38.011719 162.785156 38.4375 160.34375 38.917969 157.914062 C 39.402344 155.480469 39.945312 153.0625 40.546875 150.660156 C 41.152344 148.253906 41.8125 145.867188 42.53125 143.496094 C 43.25 141.125 44.027344 138.769531 44.863281 136.4375 C 45.699219 134.105469 46.589844 131.792969 47.539062 129.503906 C 48.488281 127.210938 49.492188 124.945312 50.550781 122.707031 C 51.609375 120.464844 52.722656 118.253906 53.890625 116.066406 C 55.0625 113.878906 56.28125 111.722656 57.554688 109.597656 C 58.832031 107.472656 60.15625 105.378906 61.535156 103.316406 C 62.910156 101.257812 64.335938 99.230469 65.8125 97.242188 C 67.289062 95.25 68.816406 93.296875 70.386719 91.378906 C 71.960938 89.464844 73.578125 87.589844 75.242188 85.75 C 76.90625 83.914062 78.617188 82.121094 80.367188 80.367188 C 82.121094 78.617188 83.914062 76.90625 85.75 75.242188 C 87.589844 73.578125 89.464844 71.960938 91.378906 70.386719 C 93.296875 68.816406 95.25 67.289062 97.242188 65.8125 C 99.230469 64.335938 101.257812 62.910156 103.316406 61.535156 C 105.378906 60.15625 107.472656 58.832031 109.597656 57.554688 C 111.722656 56.28125 113.878906 55.0625 116.066406 53.890625 C 118.253906 52.722656 120.464844 51.609375 122.707031 50.550781 C 124.945312 49.492188 127.210938 48.488281 129.503906 47.539062 C 131.792969 46.589844 134.105469 45.699219 136.4375 44.863281 C 138.769531 44.027344 141.125 43.25 143.496094 42.53125 C 145.867188 41.8125 148.253906 41.152344 150.660156 40.546875 C 153.0625 39.945312 155.480469 39.402344 157.914062 38.917969 C 160.34375 38.4375 162.785156 38.011719 165.238281 37.648438 C 167.6875 37.285156 170.148438 36.980469 172.613281 36.738281 C 175.082031 36.496094 177.550781 36.3125 180.027344 36.191406 C 182.503906 36.070312 184.980469 36.007812 187.460938 36.007812 C 189.9375 36.007812 192.414062 36.070312 194.890625 36.191406 C 197.367188 36.3125 199.835938 36.496094 202.304688 36.738281 C 204.769531 36.980469 207.230469 37.285156 209.683594 37.648438 C 212.132812 38.011719 214.574219 38.4375 217.003906 38.917969 C 219.4375 39.402344 221.855469 39.945312 224.257812 40.546875 C 226.664062 41.152344 229.050781 41.8125 231.421875 42.53125 C 233.792969 43.25 236.148438 44.027344 238.480469 44.863281 C 240.816406 45.699219 243.125 46.589844 245.417969 47.539062 C 247.707031 48.488281 249.972656 49.492188 252.210938 50.550781 C 254.453125 51.609375 256.667969 52.722656 258.851562 53.890625 C 261.039062 55.0625 263.195312 56.28125 265.320312 57.554688 C 267.445312 58.832031 269.539062 60.15625 271.601562 61.535156 C 273.660156 62.910156 275.6875 64.335938 277.679688 65.8125 C 279.667969 67.289062 281.621094 68.816406 283.539062 70.386719 C 285.453125 71.960938 287.332031 73.578125 289.167969 75.242188 C 291.003906 76.90625 292.796875 78.617188 294.550781 80.367188 C 296.304688 82.121094 298.011719 83.914062 299.675781 85.75 C 301.339844 87.589844 302.960938 89.464844 304.53125 91.378906 C 306.105469 93.296875 307.628906 95.25 309.105469 97.242188 C 310.582031 99.230469 312.007812 101.257812 313.386719 103.316406 C 314.761719 105.378906 316.089844 107.472656 317.363281 109.597656 C 318.636719 111.722656 319.859375 113.878906 321.027344 116.066406 C 322.195312 118.253906 323.308594 120.464844 324.367188 122.707031 C 325.429688 124.945312 326.433594 127.210938 327.382812 129.503906 C 328.328125 131.792969 329.222656 134.105469 330.054688 136.4375 C 330.890625 138.769531 331.667969 141.125 332.386719 143.496094 C 333.109375 145.867188 333.769531 148.253906 334.371094 150.660156 C 334.972656 153.0625 335.515625 155.480469 336 157.914062 C 336.484375 160.34375 336.90625 162.785156 337.269531 165.238281 C 337.632812 167.6875 337.9375 170.148438 338.179688 172.613281 C 338.421875 175.082031 338.605469 177.550781 338.726562 180.027344 C 338.847656 182.503906 338.910156 184.980469 338.910156 187.460938 C 338.90625 189.9375 338.84375 192.414062 338.71875 194.886719 C 338.59375 197.363281 338.410156 199.832031 338.164062 202.296875 C 337.917969 204.765625 337.613281 207.222656 337.246094 209.671875 C 336.882812 212.125 336.457031 214.5625 335.96875 216.992188 C 335.484375 219.421875 334.941406 221.839844 334.335938 224.242188 C 333.730469 226.644531 333.070312 229.03125 332.347656 231.402344 C 331.628906 233.773438 330.847656 236.125 330.011719 238.457031 C 329.175781 240.789062 328.285156 243.101562 327.335938 245.390625 C 326.382812 247.679688 325.378906 249.941406 324.320312 252.183594 C 323.257812 254.421875 322.144531 256.632812 320.976562 258.816406 C 319.804688 261.003906 318.585938 263.15625 317.308594 265.28125 C 316.035156 267.40625 314.707031 269.5 313.332031 271.558594 C 311.953125 273.617188 310.527344 275.644531 309.050781 277.632812 C 307.574219 279.625 306.050781 281.574219 304.476562 283.492188 C 302.90625 285.40625 301.289062 287.28125 299.625 289.117188 C 297.960938 290.953125 296.25 292.746094 294.5 294.5 C 292.746094 296.25 290.953125 297.960938 289.117188 299.625 C 287.28125 301.289062 285.40625 302.90625 283.492188 304.476562 C 281.578125 306.050781 279.625 307.574219 277.632812 309.050781 C 275.644531 310.527344 273.617188 311.953125 271.558594 313.332031 C 269.5 314.707031 267.40625 316.035156 265.28125 317.308594 C 263.15625 318.585938 261.003906 319.804688 258.816406 320.976562 C 256.632812 322.144531 254.421875 323.257812 252.183594 324.320312 C 249.941406 325.378906 247.679688 326.382812 245.390625 327.335938 C 243.101562 328.285156 240.789062 329.175781 238.457031 330.011719 C 236.125 330.847656 233.773438 331.628906 231.402344 332.347656 C 229.03125 333.070312 226.644531 333.730469 224.242188 334.335938 C 221.839844 334.941406 219.421875 335.484375 216.992188 335.96875 C 214.5625 336.457031 212.125 336.882812 209.671875 337.246094 C 207.222656 337.613281 204.765625 337.917969 202.296875 338.164062 C 199.832031 338.410156 197.363281 338.59375 194.886719 338.71875 C 192.414062 338.84375 189.9375 338.90625 187.460938 338.910156 Z M 187.460938 47.660156 C 185.171875 47.660156 182.886719 47.714844 180.601562 47.828125 C 178.316406 47.941406 176.035156 48.109375 173.757812 48.332031 C 171.480469 48.558594 169.210938 48.835938 166.945312 49.171875 C 164.683594 49.507812 162.429688 49.898438 160.1875 50.34375 C 157.941406 50.792969 155.710938 51.292969 153.492188 51.847656 C 151.269531 52.40625 149.066406 53.015625 146.878906 53.679688 C 144.6875 54.34375 142.515625 55.0625 140.363281 55.832031 C 138.207031 56.601562 136.074219 57.425781 133.960938 58.300781 C 131.847656 59.175781 129.753906 60.101562 127.6875 61.082031 C 125.617188 62.058594 123.574219 63.089844 121.558594 64.167969 C 119.539062 65.246094 117.550781 66.371094 115.585938 67.550781 C 113.625 68.726562 111.691406 69.949219 109.789062 71.21875 C 107.886719 72.492188 106.019531 73.808594 104.179688 75.171875 C 102.34375 76.535156 100.539062 77.941406 98.769531 79.390625 C 97.003906 80.84375 95.269531 82.339844 93.574219 83.875 C 91.878906 85.410156 90.222656 86.988281 88.605469 88.605469 C 86.988281 90.222656 85.410156 91.878906 83.875 93.574219 C 82.339844 95.269531 80.84375 97.003906 79.390625 98.769531 C 77.941406 100.539062 76.535156 102.34375 75.171875 104.179688 C 73.808594 106.019531 72.492188 107.886719 71.21875 109.789062 C 69.949219 111.691406 68.726562 113.625 67.550781 115.585938 C 66.371094 117.550781 65.246094 119.539062 64.167969 121.558594 C 63.089844 123.574219 62.058594 125.617188 61.082031 127.6875 C 60.101562 129.753906 59.175781 131.847656 58.300781 133.960938 C 57.425781 136.074219 56.601562 138.207031 55.832031 140.363281 C 55.0625 142.515625 54.34375 144.6875 53.679688 146.878906 C 53.015625 149.066406 52.40625 151.269531 51.847656 153.492188 C 51.292969 155.710938 50.792969 157.941406 50.34375 160.1875 C 49.898438 162.429688 49.507812 164.683594 49.171875 166.945312 C 48.835938 169.210938 48.558594 171.480469 48.332031 173.757812 C 48.109375 176.035156 47.941406 178.316406 47.828125 180.601562 C 47.714844 182.886719 47.660156 185.171875 47.660156 187.460938 C 47.660156 189.746094 47.714844 192.035156 47.828125 194.320312 C 47.941406 196.605469 48.109375 198.886719 48.332031 201.164062 C 48.558594 203.4375 48.835938 205.710938 49.171875 207.972656 C 49.507812 210.234375 49.898438 212.488281 50.34375 214.734375 C 50.792969 216.976562 51.292969 219.207031 51.847656 221.429688 C 52.40625 223.648438 53.015625 225.851562 53.679688 228.042969 C 54.34375 230.230469 55.0625 232.402344 55.832031 234.554688 C 56.601562 236.710938 57.425781 238.84375 58.300781 240.957031 C 59.175781 243.074219 60.101562 245.164062 61.082031 247.230469 C 62.058594 249.300781 63.089844 251.34375 64.167969 253.359375 C 65.246094 255.378906 66.371094 257.367188 67.550781 259.332031 C 68.726562 261.292969 69.949219 263.226562 71.21875 265.128906 C 72.492188 267.03125 73.808594 268.898438 75.171875 270.738281 C 76.535156 272.574219 77.941406 274.378906 79.390625 276.148438 C 80.84375 277.917969 82.339844 279.648438 83.875 281.34375 C 85.410156 283.039062 86.988281 284.695312 88.605469 286.3125 C 90.222656 287.929688 91.878906 289.507812 93.574219 291.042969 C 95.269531 292.582031 97.003906 294.074219 98.769531 295.527344 C 100.539062 296.976562 102.34375 298.386719 104.179688 299.746094 C 106.019531 301.109375 107.886719 302.425781 109.789062 303.699219 C 111.691406 304.96875 113.625 306.195312 115.585938 307.371094 C 117.550781 308.546875 119.539062 309.671875 121.558594 310.75 C 123.574219 311.832031 125.617188 312.859375 127.6875 313.835938 C 129.753906 314.816406 131.847656 315.742188 133.960938 316.617188 C 136.074219 317.492188 138.207031 318.316406 140.363281 319.085938 C 142.515625 319.859375 144.6875 320.574219 146.878906 321.238281 C 149.066406 321.902344 151.269531 322.515625 153.492188 323.070312 C 155.710938 323.625 157.941406 324.125 160.1875 324.574219 C 162.429688 325.019531 164.683594 325.410156 166.945312 325.746094 C 169.210938 326.082031 171.480469 326.363281 173.757812 326.585938 C 176.035156 326.808594 178.316406 326.980469 180.601562 327.089844 C 182.886719 327.203125 185.171875 327.257812 187.460938 327.257812 C 189.746094 327.257812 192.035156 327.203125 194.320312 327.089844 C 196.605469 326.980469 198.886719 326.808594 201.164062 326.585938 C 203.4375 326.363281 205.710938 326.082031 207.972656 325.746094 C 210.234375 325.410156 212.488281 325.019531 214.734375 324.574219 C 216.976562 324.125 219.207031 323.625 221.429688 323.070312 C 223.648438 322.515625 225.851562 321.902344 228.042969 321.238281 C 230.230469 320.574219 232.402344 319.859375 234.554688 319.085938 C 236.710938 318.316406 238.84375 317.492188 240.957031 316.617188 C 243.074219 315.742188 245.164062 314.816406 247.230469 313.835938 C 249.300781 312.859375 251.34375 311.832031 253.359375 310.75 C 255.378906 309.671875 257.367188 308.546875 259.332031 307.371094 C 261.292969 306.195312 263.226562 304.96875 265.128906 303.699219 C 267.03125 302.425781 268.898438 301.109375 270.738281 299.746094 C 272.574219 298.386719 274.378906 296.976562 276.148438 295.527344 C 277.917969 294.074219 279.648438 292.582031 281.34375 291.042969 C 283.039062 289.507812 284.695312 287.929688 286.3125 286.3125 C 287.929688 284.695312 289.507812 283.039062 291.042969 281.34375 C 292.582031 279.648438 294.074219 277.917969 295.527344 276.148438 C 296.976562 274.378906 298.386719 272.574219 299.746094 270.738281 C 301.109375 268.902344 302.425781 267.03125 303.699219 265.128906 C 304.96875 263.226562 306.195312 261.292969 307.371094 259.332031 C 308.546875 257.367188 309.671875 255.378906 310.75 253.359375 C 311.832031 251.34375 312.859375 249.300781 313.835938 247.230469 C 314.816406 245.164062 315.742188 243.074219 316.617188 240.957031 C 317.492188 238.84375 318.316406 236.710938 319.085938 234.554688 C 319.859375 232.402344 320.574219 230.230469 321.238281 228.042969 C 321.902344 225.851562 322.515625 223.648438 323.070312 221.429688 C 323.625 219.207031 324.125 216.976562 324.574219 214.734375 C 325.019531 212.488281 325.410156 210.234375 325.746094 207.972656 C 326.082031 205.710938 326.363281 203.4375 326.585938 201.164062 C 326.808594 198.886719 326.980469 196.605469 327.089844 194.320312 C 327.203125 192.035156 327.257812 189.746094 327.257812 187.460938 C 327.257812 185.171875 327.199219 182.886719 327.082031 180.601562 C 326.96875 178.316406 326.796875 176.039062 326.570312 173.761719 C 326.34375 171.484375 326.0625 169.214844 325.726562 166.953125 C 325.386719 164.691406 324.996094 162.441406 324.546875 160.195312 C 324.097656 157.953125 323.59375 155.722656 323.039062 153.503906 C 322.480469 151.289062 321.867188 149.082031 321.203125 146.894531 C 320.539062 144.707031 319.820312 142.535156 319.046875 140.382812 C 318.273438 138.230469 317.449219 136.097656 316.574219 133.984375 C 315.699219 131.871094 314.769531 129.78125 313.789062 127.714844 C 312.8125 125.648438 311.78125 123.605469 310.703125 121.589844 C 309.625 119.574219 308.496094 117.585938 307.320312 115.625 C 306.144531 113.660156 304.921875 111.730469 303.648438 109.828125 C 302.378906 107.929688 301.058594 106.058594 299.699219 104.222656 C 298.335938 102.386719 296.925781 100.582031 295.476562 98.816406 C 294.023438 97.046875 292.53125 95.316406 290.996094 93.621094 C 289.460938 91.925781 287.882812 90.269531 286.265625 88.652344 C 284.648438 87.035156 282.992188 85.460938 281.296875 83.921875 C 279.601562 82.386719 277.871094 80.894531 276.105469 79.441406 C 274.335938 77.992188 272.535156 76.585938 270.695312 75.222656 C 268.859375 73.859375 266.992188 72.542969 265.089844 71.269531 C 263.1875 70 261.257812 68.773438 259.296875 67.597656 C 257.335938 66.421875 255.34375 65.292969 253.328125 64.214844 C 251.3125 63.136719 249.269531 62.105469 247.203125 61.128906 C 245.136719 60.148438 243.046875 59.222656 240.933594 58.34375 C 238.820312 57.46875 236.6875 56.644531 234.535156 55.871094 C 232.382812 55.101562 230.210938 54.382812 228.023438 53.714844 C 225.835938 53.050781 223.632812 52.4375 221.414062 51.882812 C 219.195312 51.324219 216.964844 50.820312 214.722656 50.371094 C 212.480469 49.925781 210.226562 49.53125 207.964844 49.195312 C 205.703125 48.855469 203.433594 48.574219 201.15625 48.347656 C 198.882812 48.121094 196.601562 47.949219 194.316406 47.835938 C 192.03125 47.722656 189.746094 47.660156 187.460938 47.660156 Z M 187.460938 47.660156 " fill-opacity="1" fill-rule="nonzero"/><path fill="#000000" d="M 239.882812 263.183594 L 105.910156 263.183594 C 105.355469 263.183594 104.8125 263.105469 104.28125 262.953125 C 103.75 262.796875 103.25 262.570312 102.785156 262.273438 C 102.316406 261.976562 101.902344 261.621094 101.535156 261.203125 C 101.171875 260.789062 100.871094 260.332031 100.636719 259.828125 C 100.402344 259.328125 100.242188 258.804688 100.15625 258.257812 C 100.070312 257.710938 100.0625 257.164062 100.132812 256.613281 C 100.207031 256.066406 100.351562 255.539062 100.574219 255.03125 C 100.792969 254.523438 101.082031 254.054688 101.4375 253.632812 L 130.5625 218.679688 C 131.113281 218.015625 131.78125 217.5 132.5625 217.136719 C 133.347656 216.769531 134.171875 216.585938 135.035156 216.585938 L 269.007812 216.585938 C 269.5625 216.585938 270.105469 216.660156 270.636719 216.816406 C 271.167969 216.96875 271.667969 217.195312 272.136719 217.492188 C 272.601562 217.789062 273.019531 218.144531 273.386719 218.5625 C 273.75 218.976562 274.050781 219.433594 274.285156 219.9375 C 274.523438 220.4375 274.683594 220.960938 274.769531 221.507812 C 274.855469 222.054688 274.859375 222.605469 274.789062 223.152344 C 274.71875 223.703125 274.574219 224.230469 274.351562 224.738281 C 274.132812 225.246094 273.84375 225.710938 273.488281 226.136719 L 244.363281 261.085938 C 243.808594 261.753906 243.140625 262.269531 242.359375 262.636719 C 241.574219 263 240.75 263.183594 239.882812 263.183594 Z M 118.347656 251.535156 L 237.175781 251.535156 L 256.597656 228.234375 L 137.765625 228.234375 Z M 118.347656 251.535156 " fill-opacity="1" fill-rule="nonzero"/><path fill="#000000" d="M 269.007812 210.757812 L 135.035156 210.757812 C 134.171875 210.757812 133.347656 210.574219 132.5625 210.207031 C 131.78125 209.84375 131.113281 209.328125 130.5625 208.664062 L 101.4375 173.710938 C 101.082031 173.289062 100.792969 172.820312 100.574219 172.3125 C 100.351562 171.804688 100.207031 171.277344 100.132812 170.730469 C 100.0625 170.179688 100.070312 169.632812 100.15625 169.085938 C 100.242188 168.539062 100.402344 168.015625 100.636719 167.515625 C 100.871094 167.011719 101.171875 166.554688 101.535156 166.140625 C 101.902344 165.722656 102.316406 165.367188 102.785156 165.070312 C 103.25 164.773438 103.75 164.546875 104.28125 164.390625 C 104.8125 164.238281 105.355469 164.160156 105.910156 164.160156 L 239.882812 164.160156 C 240.75 164.160156 241.574219 164.34375 242.359375 164.707031 C 243.140625 165.074219 243.808594 165.589844 244.363281 166.257812 L 273.488281 201.207031 C 273.84375 201.632812 274.132812 202.097656 274.351562 202.605469 C 274.574219 203.113281 274.71875 203.640625 274.789062 204.191406 C 274.859375 204.738281 274.855469 205.289062 274.769531 205.835938 C 274.683594 206.382812 274.523438 206.90625 274.285156 207.40625 C 274.050781 207.910156 273.75 208.367188 273.386719 208.78125 C 273.019531 209.199219 272.601562 209.554688 272.136719 209.851562 C 271.667969 210.148438 271.167969 210.375 270.636719 210.527344 C 270.105469 210.683594 269.5625 210.757812 269.007812 210.757812 Z M 137.761719 199.109375 L 256.589844 199.109375 L 237.171875 175.808594 L 118.339844 175.808594 Z M 137.761719 199.109375 " fill-opacity="1" fill-rule="nonzero"/><path fill="#000000" d="M 239.882812 158.335938 L 105.910156 158.335938 C 105.355469 158.335938 104.8125 158.257812 104.28125 158.101562 C 103.75 157.945312 103.25 157.722656 102.785156 157.425781 C 102.316406 157.128906 101.902344 156.769531 101.535156 156.355469 C 101.171875 155.9375 100.871094 155.480469 100.636719 154.980469 C 100.402344 154.480469 100.242188 153.953125 100.15625 153.40625 C 100.070312 152.859375 100.0625 152.3125 100.132812 151.765625 C 100.207031 151.214844 100.351562 150.6875 100.574219 150.179688 C 100.792969 149.671875 101.082031 149.207031 101.4375 148.78125 L 130.5625 113.832031 C 131.113281 113.167969 131.78125 112.652344 132.5625 112.285156 C 133.347656 111.917969 134.171875 111.734375 135.035156 111.734375 L 269.007812 111.734375 C 269.5625 111.734375 270.105469 111.8125 270.636719 111.964844 C 271.167969 112.121094 271.667969 112.34375 272.136719 112.640625 C 272.601562 112.9375 273.019531 113.296875 273.386719 113.710938 C 273.75 114.125 274.050781 114.585938 274.285156 115.085938 C 274.523438 115.585938 274.683594 116.113281 274.769531 116.660156 C 274.855469 117.207031 274.859375 117.753906 274.789062 118.304688 C 274.71875 118.851562 274.574219 119.378906 274.351562 119.886719 C 274.132812 120.394531 273.84375 120.863281 273.488281 121.289062 L 244.363281 156.238281 C 243.808594 156.902344 243.140625 157.417969 242.359375 157.785156 C 241.574219 158.152344 240.75 158.335938 239.882812 158.335938 Z M 118.347656 146.683594 L 237.175781 146.683594 L 256.597656 123.382812 L 137.765625 123.382812 Z M 118.347656 146.683594 " fill-opacity="1" fill-rule="nonzero"/></svg>