<svg xmlns="http://www.w3.org/2000/svg" xmlns:xlink="http://www.w3.org/1999/xlink" width="500" zoomAndPan="magnify" viewBox="0 0 375 374.999991" height="500" preserveAspectRatio="xMidYMid meet" version="1.0"><defs><clipPath id="9d7a9dffe2"><path d="M 212 5 L 372.796875 5 L 372.796875 370 L 212 370 Z M 212 5 " clip-rule="nonzero"/></clipPath><clipPath id="8645cdc7ae"><path d="M 2.296875 5 L 164 5 L 164 370 L 2.296875 370 Z M 2.296875 5 " clip-rule="nonzero"/></clipPath></defs><path fill="#000000" d="M 195.941406 271.90625 C 219.335938 269.21875 231.035156 256.109375 231.035156 232.574219 C 231.035156 222.9375 228.652344 215.527344 223.894531 210.335938 C 219.132812 205.152344 209.8125 200.886719 195.941406 197.550781 Z M 179.683594 170.3125 L 179.683594 103.179688 C 158.3125 106.613281 147.628906 117.960938 147.628906 137.234375 C 147.628906 147.609375 150.589844 155.160156 156.515625 159.886719 C 162.441406 164.613281 170.164062 168.085938 179.683594 170.3125 Z M 195.941406 173.367188 C 221.058594 178.09375 238.121094 184.972656 247.136719 194.007812 C 256.152344 203.042969 260.660156 215.34375 260.660156 230.90625 C 260.660156 247.121094 254.9375 261.230469 243.488281 273.226562 C 232.042969 285.226562 216.195312 291.734375 195.941406 292.753906 L 195.941406 306.828125 C 195.941406 310.953125 192.597656 314.296875 188.472656 314.296875 L 187.148438 314.296875 C 183.027344 314.296875 179.683594 310.953125 179.683594 306.828125 L 179.683594 293.03125 C 141.808594 289.210938 120.101562 271.808594 114.558594 240.828125 C 113.738281 236.242188 117.246094 232.019531 121.90625 232.019531 L 136.445312 232.019531 C 140.023438 232.019531 143.105469 234.558594 143.769531 238.074219 C 147.449219 257.511719 159.421875 268.789062 179.683594 271.90625 L 179.683594 194.214844 C 138.664062 186.710938 118.15625 168.414062 118.15625 139.316406 C 118.15625 122.917969 123.703125 109.710938 134.792969 99.710938 C 145.882812 89.699219 160.84375 83.910156 179.683594 82.335938 L 179.683594 68.398438 C 179.683594 64.273438 183.027344 60.933594 187.148438 60.933594 L 188.472656 60.933594 C 192.597656 60.933594 195.941406 64.273438 195.941406 68.398438 L 195.941406 82.335938 C 228.253906 84.578125 247.507812 98.316406 253.710938 123.554688 C 254.867188 128.25 251.289062 132.785156 246.453125 132.785156 L 232.066406 132.785156 C 228.582031 132.785156 225.578125 130.367188 224.789062 126.96875 C 221.625 113.335938 212.007812 105.503906 195.941406 103.457031 L 195.941406 173.367188 " fill-opacity="1" fill-rule="nonzero"/><g clip-path="url(#9d7a9dffe2)"><path fill="#000000" d="M 358.082031 115.542969 C 348.761719 93.496094 335.417969 73.695312 318.421875 56.695312 C 301.425781 39.691406 281.632812 26.34375 259.59375 17.015625 C 247.03125 11.703125 234.039062 7.832031 220.730469 5.425781 C 216.214844 4.609375 212.058594 8.089844 212.058594 12.679688 C 212.058594 16.25 214.621094 19.292969 218.132812 19.929688 C 297.535156 34.386719 357.921875 104.078125 357.921875 187.613281 C 357.921875 271.148438 297.535156 340.839844 218.132812 355.292969 C 214.621094 355.9375 212.058594 358.976562 212.058594 362.546875 C 212.058594 367.136719 216.214844 370.617188 220.730469 369.800781 C 234.039062 367.394531 247.03125 363.523438 259.59375 358.207031 C 281.632812 348.882812 301.425781 335.535156 318.421875 318.535156 C 335.417969 301.53125 348.761719 281.734375 358.082031 259.683594 C 367.734375 236.855469 372.628906 212.605469 372.628906 187.613281 C 372.628906 162.621094 367.734375 138.375 358.082031 115.542969 " fill-opacity="1" fill-rule="nonzero"/></g><g clip-path="url(#8645cdc7ae)"><path fill="#000000" d="M 17.171875 187.613281 C 17.171875 104.078125 77.5625 34.386719 156.964844 19.929688 C 160.476562 19.292969 163.035156 16.25 163.035156 12.679688 C 163.035156 8.089844 158.882812 4.609375 154.367188 5.425781 C 141.058594 7.832031 128.066406 11.703125 115.503906 17.015625 C 93.464844 26.34375 73.671875 39.691406 56.675781 56.695312 C 39.679688 73.695312 26.335938 93.496094 17.015625 115.542969 C 7.359375 138.375 2.46875 162.621094 2.46875 187.613281 C 2.46875 212.605469 7.359375 236.855469 17.015625 259.683594 C 26.335938 281.734375 39.679688 301.53125 56.675781 318.535156 C 73.671875 335.535156 93.464844 348.882812 115.503906 358.207031 C 128.066406 363.523438 141.058594 367.394531 154.367188 369.800781 C 158.882812 370.617188 163.035156 367.136719 163.035156 362.546875 C 163.035156 358.976562 160.476562 355.9375 156.964844 355.292969 C 77.5625 340.839844 17.171875 271.148438 17.171875 187.613281 " fill-opacity="1" fill-rule="nonzero"/></g></svg>